<svg width="817" height="228" viewBox="0 0 817 228" fill="none" xmlns="http://www.w3.org/2000/svg">
<path d="M7.4858 82V20.1818H14.9716V47.7102H47.9332V20.1818H55.419V82H47.9332V54.3509H14.9716V82H7.4858ZM77.8915 20.1818V82H70.4057V20.1818H77.8915ZM102.56 73.5483L102.077 76.8082C101.735 79.1023 101.212 81.5573 100.507 84.1733C99.8232 86.7893 99.1088 89.2544 98.3643 91.5685C97.6197 93.8827 97.0059 95.724 96.523 97.0923H91.0898C91.3514 95.8045 91.6934 94.104 92.116 91.9911C92.5386 89.8782 92.9612 87.5137 93.3838 84.8977C93.8265 82.3018 94.1887 79.6456 94.4704 76.929L94.8327 73.5483H102.56Z" fill="url(#paint0_linear_1_6)"/>
<path d="M107.83 135.182V205H93.0682V135.182H107.83ZM131.872 135.182V142.545C131.872 144.636 131.463 146.773 130.645 148.955C129.849 151.114 128.781 153.159 127.44 155.091C126.099 157 124.634 158.625 123.043 159.966L116.634 156.182C117.77 154.386 118.77 152.398 119.634 150.216C120.52 148.034 120.963 145.5 120.963 142.614V135.182H131.872ZM139.483 205V152.636H153.324V161.875H153.938C155.028 158.807 156.847 156.386 159.392 154.614C161.938 152.841 164.983 151.955 168.528 151.955C172.119 151.955 175.176 152.852 177.699 154.648C180.222 156.42 181.903 158.83 182.744 161.875H183.29C184.358 158.875 186.29 156.477 189.085 154.682C191.903 152.864 195.233 151.955 199.074 151.955C203.96 151.955 207.926 153.511 210.972 156.625C214.04 159.716 215.574 164.102 215.574 169.784V205H201.085V172.648C201.085 169.739 200.313 167.557 198.767 166.102C197.222 164.648 195.29 163.92 192.972 163.92C190.335 163.92 188.278 164.761 186.801 166.443C185.324 168.102 184.585 170.295 184.585 173.023V205H170.506V172.341C170.506 169.773 169.767 167.727 168.29 166.205C166.835 164.682 164.915 163.92 162.528 163.92C160.915 163.92 159.46 164.33 158.165 165.148C156.892 165.943 155.881 167.068 155.131 168.523C154.381 169.955 154.006 171.636 154.006 173.568V205H139.483ZM246.878 147.352V135.182H304.219V147.352H282.844V205H268.253V147.352H246.878ZM321.196 205.989C317.855 205.989 314.878 205.409 312.264 204.25C309.651 203.068 307.582 201.33 306.06 199.034C304.56 196.716 303.81 193.83 303.81 190.375C303.81 187.466 304.344 185.023 305.412 183.045C306.48 181.068 307.935 179.477 309.776 178.273C311.616 177.068 313.707 176.159 316.048 175.545C318.412 174.932 320.889 174.5 323.48 174.25C326.526 173.932 328.98 173.636 330.844 173.364C332.707 173.068 334.06 172.636 334.901 172.068C335.741 171.5 336.162 170.659 336.162 169.545V169.341C336.162 167.182 335.48 165.511 334.116 164.33C332.776 163.148 330.866 162.557 328.389 162.557C325.776 162.557 323.696 163.136 322.151 164.295C320.605 165.432 319.582 166.864 319.082 168.591L305.651 167.5C306.332 164.318 307.673 161.568 309.673 159.25C311.673 156.909 314.253 155.114 317.412 153.864C320.594 152.591 324.276 151.955 328.457 151.955C331.366 151.955 334.151 152.295 336.81 152.977C339.491 153.659 341.866 154.716 343.935 156.148C346.026 157.58 347.673 159.42 348.878 161.67C350.082 163.898 350.685 166.568 350.685 169.682V205H336.912V197.739H336.503C335.662 199.375 334.537 200.818 333.128 202.068C331.719 203.295 330.026 204.261 328.048 204.966C326.071 205.648 323.787 205.989 321.196 205.989ZM325.355 195.966C327.491 195.966 329.378 195.545 331.014 194.705C332.651 193.841 333.935 192.682 334.866 191.227C335.798 189.773 336.264 188.125 336.264 186.284V180.727C335.81 181.023 335.185 181.295 334.389 181.545C333.616 181.773 332.741 181.989 331.764 182.193C330.787 182.375 329.81 182.545 328.832 182.705C327.855 182.841 326.969 182.966 326.173 183.08C324.469 183.33 322.98 183.727 321.707 184.273C320.435 184.818 319.446 185.557 318.741 186.489C318.037 187.398 317.685 188.534 317.685 189.898C317.685 191.875 318.401 193.386 319.832 194.432C321.287 195.455 323.128 195.966 325.355 195.966ZM405.52 167.568L392.224 168.386C391.997 167.25 391.509 166.227 390.759 165.318C390.009 164.386 389.02 163.648 387.793 163.102C386.588 162.534 385.145 162.25 383.463 162.25C381.213 162.25 379.315 162.727 377.77 163.682C376.224 164.614 375.452 165.864 375.452 167.432C375.452 168.682 375.952 169.739 376.952 170.602C377.952 171.466 379.668 172.159 382.099 172.682L391.577 174.591C396.668 175.636 400.463 177.318 402.963 179.636C405.463 181.955 406.713 185 406.713 188.773C406.713 192.205 405.702 195.216 403.679 197.807C401.679 200.398 398.929 202.42 395.429 203.875C391.952 205.307 387.94 206.023 383.395 206.023C376.463 206.023 370.94 204.58 366.827 201.693C362.736 198.784 360.338 194.83 359.634 189.83L373.918 189.08C374.349 191.193 375.395 192.807 377.054 193.92C378.713 195.011 380.838 195.557 383.429 195.557C385.974 195.557 388.02 195.068 389.565 194.091C391.134 193.091 391.929 191.807 391.952 190.239C391.929 188.92 391.372 187.841 390.281 187C389.19 186.136 387.509 185.477 385.236 185.023L376.168 183.216C371.054 182.193 367.247 180.42 364.747 177.898C362.27 175.375 361.031 172.159 361.031 168.25C361.031 164.886 361.94 161.989 363.759 159.557C365.599 157.125 368.179 155.25 371.497 153.932C374.838 152.614 378.747 151.955 383.224 151.955C389.838 151.955 395.043 153.352 398.838 156.148C402.656 158.943 404.884 162.75 405.52 167.568ZM430.381 174.727V205H415.858V152.636H429.699V161.875H430.312C431.472 158.83 433.415 156.42 436.142 154.648C438.869 152.852 442.176 151.955 446.062 151.955C449.699 151.955 452.869 152.75 455.574 154.341C458.278 155.932 460.381 158.205 461.881 161.159C463.381 164.091 464.131 167.591 464.131 171.659V205H449.608V174.25C449.631 171.045 448.813 168.545 447.153 166.75C445.494 164.932 443.21 164.023 440.301 164.023C438.347 164.023 436.619 164.443 435.119 165.284C433.642 166.125 432.483 167.352 431.642 168.966C430.824 170.557 430.403 172.477 430.381 174.727ZM475.577 205V152.636H490.099V205H475.577ZM482.872 145.886C480.713 145.886 478.861 145.17 477.315 143.739C475.793 142.284 475.031 140.545 475.031 138.523C475.031 136.523 475.793 134.807 477.315 133.375C478.861 131.92 480.713 131.193 482.872 131.193C485.031 131.193 486.872 131.92 488.395 133.375C489.94 134.807 490.713 136.523 490.713 138.523C490.713 140.545 489.94 142.284 488.395 143.739C486.872 145.17 485.031 145.886 482.872 145.886ZM501.733 205V152.636H516.256V205H501.733ZM509.028 145.886C506.869 145.886 505.017 145.17 503.472 143.739C501.949 142.284 501.188 140.545 501.188 138.523C501.188 136.523 501.949 134.807 503.472 133.375C505.017 131.92 506.869 131.193 509.028 131.193C511.188 131.193 513.028 131.92 514.551 133.375C516.097 134.807 516.869 136.523 516.869 138.523C516.869 140.545 516.097 142.284 514.551 143.739C513.028 145.17 511.188 145.886 509.028 145.886ZM527.889 205V152.636H541.73V161.875H542.344C543.435 158.807 545.253 156.386 547.798 154.614C550.344 152.841 553.389 151.955 556.935 151.955C560.526 151.955 563.582 152.852 566.105 154.648C568.628 156.42 570.31 158.83 571.151 161.875H571.696C572.764 158.875 574.696 156.477 577.491 154.682C580.31 152.864 583.639 151.955 587.48 151.955C592.366 151.955 596.332 153.511 599.378 156.625C602.446 159.716 603.98 164.102 603.98 169.784V205H589.491V172.648C589.491 169.739 588.719 167.557 587.173 166.102C585.628 164.648 583.696 163.92 581.378 163.92C578.741 163.92 576.685 164.761 575.207 166.443C573.73 168.102 572.991 170.295 572.991 173.023V205H558.912V172.341C558.912 169.773 558.173 167.727 556.696 166.205C555.241 164.682 553.321 163.92 550.935 163.92C549.321 163.92 547.866 164.33 546.571 165.148C545.298 165.943 544.287 167.068 543.537 168.523C542.787 169.955 542.412 171.636 542.412 173.568V205H527.889ZM637.943 205V135.182H665.898C671.034 135.182 675.318 135.943 678.75 137.466C682.182 138.989 684.761 141.102 686.489 143.807C688.216 146.489 689.08 149.58 689.08 153.08C689.08 155.807 688.534 158.205 687.443 160.273C686.352 162.318 684.852 164 682.943 165.318C681.057 166.614 678.898 167.534 676.466 168.08V168.761C679.125 168.875 681.614 169.625 683.932 171.011C686.273 172.398 688.17 174.341 689.625 176.841C691.08 179.318 691.807 182.273 691.807 185.705C691.807 189.409 690.886 192.716 689.045 195.625C687.227 198.511 684.534 200.795 680.966 202.477C677.398 204.159 673 205 667.773 205H637.943ZM652.705 192.932H664.739C668.852 192.932 671.852 192.148 673.739 190.58C675.625 188.989 676.568 186.875 676.568 184.239C676.568 182.307 676.102 180.602 675.17 179.125C674.239 177.648 672.909 176.489 671.182 175.648C669.477 174.807 667.443 174.386 665.08 174.386H652.705V192.932ZM652.705 164.398H663.648C665.67 164.398 667.466 164.045 669.034 163.341C670.625 162.614 671.875 161.591 672.784 160.273C673.716 158.955 674.182 157.375 674.182 155.534C674.182 153.011 673.284 150.977 671.489 149.432C669.716 147.886 667.193 147.114 663.92 147.114H652.705V164.398ZM716.071 205.989C712.73 205.989 709.753 205.409 707.139 204.25C704.526 203.068 702.457 201.33 700.935 199.034C699.435 196.716 698.685 193.83 698.685 190.375C698.685 187.466 699.219 185.023 700.287 183.045C701.355 181.068 702.81 179.477 704.651 178.273C706.491 177.068 708.582 176.159 710.923 175.545C713.287 174.932 715.764 174.5 718.355 174.25C721.401 173.932 723.855 173.636 725.719 173.364C727.582 173.068 728.935 172.636 729.776 172.068C730.616 171.5 731.037 170.659 731.037 169.545V169.341C731.037 167.182 730.355 165.511 728.991 164.33C727.651 163.148 725.741 162.557 723.264 162.557C720.651 162.557 718.571 163.136 717.026 164.295C715.48 165.432 714.457 166.864 713.957 168.591L700.526 167.5C701.207 164.318 702.548 161.568 704.548 159.25C706.548 156.909 709.128 155.114 712.287 153.864C715.469 152.591 719.151 151.955 723.332 151.955C726.241 151.955 729.026 152.295 731.685 152.977C734.366 153.659 736.741 154.716 738.81 156.148C740.901 157.58 742.548 159.42 743.753 161.67C744.957 163.898 745.56 166.568 745.56 169.682V205H731.787V197.739H731.378C730.537 199.375 729.412 200.818 728.003 202.068C726.594 203.295 724.901 204.261 722.923 204.966C720.946 205.648 718.662 205.989 716.071 205.989ZM720.23 195.966C722.366 195.966 724.253 195.545 725.889 194.705C727.526 193.841 728.81 192.682 729.741 191.227C730.673 189.773 731.139 188.125 731.139 186.284V180.727C730.685 181.023 730.06 181.295 729.264 181.545C728.491 181.773 727.616 181.989 726.639 182.193C725.662 182.375 724.685 182.545 723.707 182.705C722.73 182.841 721.844 182.966 721.048 183.08C719.344 183.33 717.855 183.727 716.582 184.273C715.31 184.818 714.321 185.557 713.616 186.489C712.912 187.398 712.56 188.534 712.56 189.898C712.56 191.875 713.276 193.386 714.707 194.432C716.162 195.455 718.003 195.966 720.23 195.966ZM756.827 205V152.636H770.906V161.773H771.452C772.406 158.523 774.009 156.068 776.259 154.409C778.509 152.727 781.099 151.886 784.031 151.886C784.759 151.886 785.543 151.932 786.384 152.023C787.224 152.114 787.963 152.239 788.599 152.398V165.284C787.918 165.08 786.974 164.898 785.77 164.739C784.565 164.58 783.463 164.5 782.463 164.5C780.327 164.5 778.418 164.966 776.736 165.898C775.077 166.807 773.759 168.08 772.781 169.716C771.827 171.352 771.349 173.239 771.349 175.375V205H756.827ZM796.108 205V152.636H810.631V205H796.108ZM803.403 145.886C801.244 145.886 799.392 145.17 797.847 143.739C796.324 142.284 795.562 140.545 795.562 138.523C795.562 136.523 796.324 134.807 797.847 133.375C799.392 131.92 801.244 131.193 803.403 131.193C805.563 131.193 807.403 131.92 808.926 133.375C810.472 134.807 811.244 136.523 811.244 138.523C811.244 140.545 810.472 142.284 808.926 143.739C807.403 145.17 805.563 145.886 803.403 145.886Z" fill="url(#paint1_linear_1_6)"/>
<defs>
<linearGradient id="paint0_linear_1_6" x1="88.7097" y1="70.1466" x2="47.8636" y2="112.285" gradientUnits="userSpaceOnUse">
<stop stop-color="#FF0000"/>
<stop offset="0.179688" stop-color="#FFA500"/>
<stop offset="0.341146" stop-color="#FFFF00"/>
<stop offset="0.5" stop-color="#00FF00"/>
<stop offset="0.690104" stop-color="#0000FF"/>
<stop offset="0.880208" stop-color="#4B0082"/>
<stop offset="1" stop-color="#8F00FF"/>
</linearGradient>
<linearGradient id="paint1_linear_1_6" x1="675.71" y1="191" x2="660.967" y2="280.622" gradientUnits="userSpaceOnUse">
<stop stop-color="#FF0000"/>
<stop offset="0.179688" stop-color="#FFA500"/>
<stop offset="0.341146" stop-color="#FFFF00"/>
<stop offset="0.5" stop-color="#00FF00"/>
<stop offset="0.690104" stop-color="#0000FF"/>
<stop offset="0.880208" stop-color="#4B0082"/>
<stop offset="1" stop-color="#8F00FF"/>
</linearGradient>
</defs>
</svg>
