<svg width="837" height="228" viewBox="0 0 837 228" fill="none" xmlns="http://www.w3.org/2000/svg">
<path d="M4.67862 82V20.1818H19.62V44.9936H43.979V20.1818H58.8903V82H43.979V57.158H19.62V82H4.67862ZM68.2626 82V35.6364H83.0229V82H68.2626ZM75.6578 30.2333C73.5852 30.2333 71.8043 29.5491 70.3152 28.1808C68.8261 26.7923 68.0815 25.122 68.0815 23.1701C68.0815 21.2383 68.8261 19.5882 70.3152 18.2198C71.8043 16.8313 73.5852 16.1371 75.6578 16.1371C77.7507 16.1371 79.5315 16.8313 81.0005 18.2198C82.4896 19.5882 83.2342 21.2383 83.2342 23.1701C83.2342 25.122 82.4896 26.7923 81.0005 28.1808C79.5315 29.5491 77.7507 30.2333 75.6578 30.2333Z" fill="#FF0000"/>
<path d="M107.48 73.5483L107.208 76.8988C106.967 79.6758 106.474 82.3823 105.729 85.0185C105.005 87.6747 104.23 90.0593 103.405 92.1722C102.58 94.2852 101.926 95.9252 101.443 97.0923H92.1462C92.4682 95.9252 92.9008 94.2852 93.4442 92.1722C94.0076 90.0593 94.5308 87.6747 95.0138 85.0185C95.4967 82.3622 95.7684 79.6657 95.8287 76.929L95.8891 73.5483H107.48Z" fill="#FF9900"/>
<path d="M109.159 135.182V205H92.2841V135.182H109.159Z" fill="#FFB800"/>
<path d="M133.628 135.182V142.955C133.628 145.114 133.196 147.295 132.332 149.5C131.491 151.682 130.389 153.727 129.026 155.636C127.662 157.545 126.219 159.159 124.696 160.477L117.605 156.591C118.651 154.864 119.582 152.92 120.401 150.761C121.219 148.58 121.628 145.989 121.628 142.989V135.182H133.628Z" fill="#FFE600"/>
<path d="M143.003 205V152.636H158.855V162.25H159.435C160.526 159.068 162.366 156.557 164.957 154.716C167.548 152.875 170.639 151.955 174.23 151.955C177.866 151.955 180.98 152.886 183.571 154.75C186.162 156.614 187.81 159.114 188.514 162.25H189.06C190.037 159.136 191.946 156.648 194.787 154.784C197.628 152.898 200.98 151.955 204.844 151.955C209.798 151.955 213.821 153.545 216.912 156.727C220.003 159.886 221.548 164.227 221.548 169.75V205H204.878V173.568C204.878 170.955 204.207 168.966 202.866 167.602C201.526 166.216 199.787 165.523 197.651 165.523C195.355 165.523 193.548 166.273 192.23 167.773C190.935 169.25 190.287 171.239 190.287 173.739V205H174.264V173.398C174.264 170.966 173.605 169.045 172.287 167.636C170.969 166.227 169.23 165.523 167.071 165.523C165.616 165.523 164.332 165.875 163.219 166.58C162.105 167.261 161.23 168.239 160.594 169.511C159.98 170.784 159.673 172.284 159.673 174.011V205H143.003Z" fill="#FFF500"/>
<path d="M250.219 148.886V135.182H309.23V148.886H288.06V205H271.423V148.886H250.219Z" fill="#BDFF00"/>
<path d="M332.233 205.886C328.892 205.886 325.926 205.33 323.335 204.216C320.767 203.08 318.733 201.375 317.233 199.102C315.756 196.807 315.017 193.932 315.017 190.477C315.017 187.568 315.528 185.114 316.551 183.114C317.574 181.114 318.983 179.489 320.778 178.239C322.574 176.989 324.642 176.045 326.983 175.409C329.324 174.75 331.824 174.307 334.483 174.08C337.46 173.807 339.858 173.523 341.676 173.227C343.494 172.909 344.813 172.466 345.631 171.898C346.472 171.307 346.892 170.477 346.892 169.409V169.239C346.892 167.489 346.29 166.136 345.085 165.182C343.881 164.227 342.256 163.75 340.21 163.75C338.006 163.75 336.233 164.227 334.892 165.182C333.551 166.136 332.699 167.455 332.335 169.136L316.96 168.591C317.415 165.409 318.585 162.568 320.472 160.068C322.381 157.545 324.994 155.568 328.312 154.136C331.653 152.682 335.665 151.955 340.347 151.955C343.688 151.955 346.767 152.352 349.585 153.148C352.403 153.92 354.858 155.057 356.949 156.557C359.04 158.034 360.653 159.852 361.79 162.011C362.949 164.17 363.528 166.636 363.528 169.409V205H347.847V197.705H347.438C346.506 199.477 345.313 200.977 343.858 202.205C342.426 203.432 340.733 204.352 338.778 204.966C336.847 205.58 334.665 205.886 332.233 205.886ZM337.381 194.977C339.176 194.977 340.79 194.614 342.222 193.886C343.676 193.159 344.835 192.159 345.699 190.886C346.563 189.591 346.994 188.091 346.994 186.386V181.409C346.517 181.659 345.938 181.886 345.256 182.091C344.597 182.295 343.869 182.489 343.074 182.67C342.278 182.852 341.46 183.011 340.619 183.148C339.778 183.284 338.972 183.409 338.199 183.523C336.631 183.773 335.29 184.159 334.176 184.682C333.085 185.205 332.244 185.886 331.653 186.727C331.085 187.545 330.801 188.523 330.801 189.659C330.801 191.386 331.415 192.705 332.642 193.614C333.892 194.523 335.472 194.977 337.381 194.977Z" fill="#00FF38"/>
<path d="M419.438 168.625L404.131 169.034C403.972 167.943 403.54 166.977 402.835 166.136C402.131 165.273 401.21 164.602 400.074 164.125C398.96 163.625 397.665 163.375 396.188 163.375C394.256 163.375 392.608 163.761 391.244 164.534C389.903 165.307 389.244 166.352 389.267 167.67C389.244 168.693 389.653 169.58 390.494 170.33C391.358 171.08 392.892 171.682 395.097 172.136L405.188 174.045C410.415 175.045 414.301 176.705 416.847 179.023C419.415 181.341 420.71 184.409 420.733 188.227C420.71 191.818 419.642 194.943 417.528 197.602C415.438 200.261 412.574 202.33 408.938 203.807C405.301 205.261 401.142 205.989 396.46 205.989C388.983 205.989 383.085 204.455 378.767 201.386C374.472 198.295 372.017 194.159 371.403 188.977L387.869 188.568C388.233 190.477 389.176 191.932 390.699 192.932C392.222 193.932 394.165 194.432 396.528 194.432C398.665 194.432 400.403 194.034 401.744 193.239C403.085 192.443 403.767 191.386 403.79 190.068C403.767 188.886 403.244 187.943 402.222 187.239C401.199 186.511 399.597 185.943 397.415 185.534L388.278 183.795C383.028 182.841 379.119 181.08 376.551 178.511C373.983 175.92 372.71 172.625 372.733 168.625C372.71 165.125 373.642 162.136 375.528 159.659C377.415 157.159 380.097 155.25 383.574 153.932C387.051 152.614 391.153 151.955 395.881 151.955C402.972 151.955 408.563 153.443 412.653 156.42C416.744 159.375 419.006 163.443 419.438 168.625Z" fill="#00FF85"/>
<path d="M445.611 175.136V205H428.94V152.636H444.793V162.25H445.372C446.531 159.045 448.509 156.534 451.304 154.716C454.099 152.875 457.429 151.955 461.293 151.955C464.974 151.955 468.168 152.784 470.872 154.443C473.599 156.08 475.713 158.375 477.213 161.33C478.736 164.261 479.486 167.693 479.463 171.625V205H462.793V174.898C462.815 171.989 462.077 169.716 460.577 168.08C459.099 166.443 457.043 165.625 454.406 165.625C452.656 165.625 451.111 166.011 449.77 166.784C448.452 167.534 447.429 168.614 446.702 170.023C445.997 171.432 445.634 173.136 445.611 175.136Z" fill="#00FFF0"/>
<path d="M489.784 205V152.636H506.455V205H489.784ZM498.136 146.534C495.795 146.534 493.784 145.761 492.102 144.216C490.42 142.648 489.58 140.761 489.58 138.557C489.58 136.375 490.42 134.511 492.102 132.966C493.784 131.398 495.795 130.614 498.136 130.614C500.5 130.614 502.511 131.398 504.17 132.966C505.852 134.511 506.693 136.375 506.693 138.557C506.693 140.761 505.852 142.648 504.17 144.216C502.511 145.761 500.5 146.534 498.136 146.534Z" fill="#00A3FF"/>
<path d="M517.065 205V152.636H533.736V205H517.065ZM525.418 146.534C523.077 146.534 521.065 145.761 519.384 144.216C517.702 142.648 516.861 140.761 516.861 138.557C516.861 136.375 517.702 134.511 519.384 132.966C521.065 131.398 523.077 130.614 525.418 130.614C527.781 130.614 529.793 131.398 531.452 132.966C533.134 134.511 533.974 136.375 533.974 138.557C533.974 140.761 533.134 142.648 531.452 144.216C529.793 145.761 527.781 146.534 525.418 146.534Z" fill="#4200FF"/>
<path d="M544.347 205V152.636H560.199V162.25H560.778C561.869 159.068 563.71 156.557 566.301 154.716C568.892 152.875 571.983 151.955 575.574 151.955C579.21 151.955 582.324 152.886 584.915 154.75C587.506 156.614 589.153 159.114 589.858 162.25H590.403C591.381 159.136 593.29 156.648 596.131 154.784C598.972 152.898 602.324 151.955 606.188 151.955C611.142 151.955 615.165 153.545 618.256 156.727C621.347 159.886 622.892 164.227 622.892 169.75V205H606.222V173.568C606.222 170.955 605.551 168.966 604.21 167.602C602.869 166.216 601.131 165.523 598.994 165.523C596.699 165.523 594.892 166.273 593.574 167.773C592.278 169.25 591.631 171.239 591.631 173.739V205H575.608V173.398C575.608 170.966 574.949 169.045 573.631 167.636C572.313 166.227 570.574 165.523 568.415 165.523C566.96 165.523 565.676 165.875 564.562 166.58C563.449 167.261 562.574 168.239 561.938 169.511C561.324 170.784 561.017 172.284 561.017 174.011V205H544.347Z" fill="#001AFF"/>
<path d="M653.847 205V135.182H682.96C688.188 135.182 692.563 135.92 696.085 137.398C699.631 138.875 702.29 140.943 704.062 143.602C705.858 146.261 706.756 149.341 706.756 152.841C706.756 155.5 706.199 157.875 705.085 159.966C703.972 162.034 702.438 163.75 700.483 165.114C698.528 166.477 696.267 167.432 693.699 167.977V168.659C696.517 168.795 699.119 169.557 701.506 170.943C703.915 172.33 705.847 174.261 707.301 176.739C708.756 179.193 709.483 182.102 709.483 185.466C709.483 189.216 708.528 192.568 706.619 195.523C704.71 198.455 701.949 200.773 698.335 202.477C694.722 204.159 690.335 205 685.176 205H653.847ZM670.722 191.398H681.153C684.813 191.398 687.506 190.705 689.233 189.318C690.983 187.932 691.858 186 691.858 183.523C691.858 181.727 691.438 180.182 690.597 178.886C689.756 177.568 688.563 176.557 687.017 175.852C685.472 175.125 683.619 174.761 681.46 174.761H670.722V191.398ZM670.722 163.886H680.062C681.903 163.886 683.54 163.58 684.972 162.966C686.403 162.352 687.517 161.466 688.312 160.307C689.131 159.148 689.54 157.75 689.54 156.114C689.54 153.773 688.71 151.932 687.051 150.591C685.392 149.25 683.153 148.58 680.335 148.58H670.722V163.886Z" fill="#AD00FF"/>
<path d="M732.358 205.886C729.017 205.886 726.051 205.33 723.46 204.216C720.892 203.08 718.858 201.375 717.358 199.102C715.881 196.807 715.142 193.932 715.142 190.477C715.142 187.568 715.653 185.114 716.676 183.114C717.699 181.114 719.108 179.489 720.903 178.239C722.699 176.989 724.767 176.045 727.108 175.409C729.449 174.75 731.949 174.307 734.608 174.08C737.585 173.807 739.983 173.523 741.801 173.227C743.619 172.909 744.938 172.466 745.756 171.898C746.597 171.307 747.017 170.477 747.017 169.409V169.239C747.017 167.489 746.415 166.136 745.21 165.182C744.006 164.227 742.381 163.75 740.335 163.75C738.131 163.75 736.358 164.227 735.017 165.182C733.676 166.136 732.824 167.455 732.46 169.136L717.085 168.591C717.54 165.409 718.71 162.568 720.597 160.068C722.506 157.545 725.119 155.568 728.438 154.136C731.778 152.682 735.79 151.955 740.472 151.955C743.813 151.955 746.892 152.352 749.71 153.148C752.528 153.92 754.983 155.057 757.074 156.557C759.165 158.034 760.778 159.852 761.915 162.011C763.074 164.17 763.653 166.636 763.653 169.409V205H747.972V197.705H747.562C746.631 199.477 745.438 200.977 743.983 202.205C742.551 203.432 740.858 204.352 738.903 204.966C736.972 205.58 734.79 205.886 732.358 205.886ZM737.506 194.977C739.301 194.977 740.915 194.614 742.347 193.886C743.801 193.159 744.96 192.159 745.824 190.886C746.688 189.591 747.119 188.091 747.119 186.386V181.409C746.642 181.659 746.063 181.886 745.381 182.091C744.722 182.295 743.994 182.489 743.199 182.67C742.403 182.852 741.585 183.011 740.744 183.148C739.903 183.284 739.097 183.409 738.324 183.523C736.756 183.773 735.415 184.159 734.301 184.682C733.21 185.205 732.369 185.886 731.778 186.727C731.21 187.545 730.926 188.523 730.926 189.659C730.926 191.386 731.54 192.705 732.767 193.614C734.017 194.523 735.597 194.977 737.506 194.977Z" fill="#7000FF"/>
<path d="M773.847 205V152.636H790.04V162.182H790.585C791.54 158.727 793.097 156.159 795.256 154.477C797.415 152.773 799.926 151.92 802.79 151.92C803.563 151.92 804.358 151.977 805.176 152.091C805.994 152.182 806.756 152.33 807.46 152.534V167.023C806.665 166.75 805.619 166.534 804.324 166.375C803.051 166.216 801.915 166.136 800.915 166.136C798.938 166.136 797.153 166.58 795.562 167.466C793.994 168.33 792.756 169.545 791.847 171.114C790.96 172.659 790.517 174.477 790.517 176.568V205H773.847Z" fill="#FF00E5"/>
<path d="M814.253 205V152.636H830.923V205H814.253ZM822.605 146.534C820.264 146.534 818.253 145.761 816.571 144.216C814.889 142.648 814.048 140.761 814.048 138.557C814.048 136.375 814.889 134.511 816.571 132.966C818.253 131.398 820.264 130.614 822.605 130.614C824.969 130.614 826.98 131.398 828.639 132.966C830.321 134.511 831.162 136.375 831.162 138.557C831.162 140.761 830.321 142.648 828.639 144.216C826.98 145.761 824.969 146.534 822.605 146.534Z" fill="#FF000F"/>
</svg>
