<svg width="826" height="228" viewBox="0 0 826 228" fill="none" xmlns="http://www.w3.org/2000/svg">
<path d="M7.4858 82V20.1818H14.9716V47.7102H47.9332V20.1818H55.419V82H47.9332V54.3509H14.9716V82H7.4858Z" fill="#FF0000"/>
<path d="M77.8915 20.1818V82H70.4057V20.1818H77.8915Z" fill="#FF4D00"/>
<path d="M102.56 73.5483L102.077 76.8082C101.735 79.1023 101.212 81.5573 100.507 84.1733C99.8232 86.7893 99.1088 89.2544 98.3643 91.5685C97.6197 93.8827 97.0059 95.724 96.523 97.0923H91.0898C91.3514 95.8045 91.6934 94.104 92.116 91.9911C92.5386 89.8782 92.9612 87.5137 93.3838 84.8977C93.8265 82.3018 94.1887 79.6456 94.4704 76.929L94.8327 73.5483H102.56Z" fill="#FF9900"/>
<path d="M107.83 135.182V205H93.0682V135.182H107.83Z" fill="#FFB800"/>
<path d="M131.872 135.182V142.545C131.872 144.636 131.463 146.773 130.645 148.955C129.849 151.114 128.781 153.159 127.44 155.091C126.099 157 124.634 158.625 123.043 159.966L116.634 156.182C117.77 154.386 118.77 152.398 119.634 150.216C120.52 148.034 120.963 145.5 120.963 142.614V135.182H131.872Z" fill="#FFE600"/>
<path d="M141.545 205V152.636H155.386V161.875H156C157.091 158.807 158.909 156.386 161.455 154.614C164 152.841 167.045 151.955 170.591 151.955C174.182 151.955 177.239 152.852 179.761 154.648C182.284 156.42 183.966 158.83 184.807 161.875H185.352C186.42 158.875 188.352 156.477 191.148 154.682C193.966 152.864 197.295 151.955 201.136 151.955C206.023 151.955 209.989 153.511 213.034 156.625C216.102 159.716 217.636 164.102 217.636 169.784V205H203.148V172.648C203.148 169.739 202.375 167.557 200.83 166.102C199.284 164.648 197.352 163.92 195.034 163.92C192.398 163.92 190.341 164.761 188.864 166.443C187.386 168.102 186.648 170.295 186.648 173.023V205H172.568V172.341C172.568 169.773 171.83 167.727 170.352 166.205C168.898 164.682 166.977 163.92 164.591 163.92C162.977 163.92 161.523 164.33 160.227 165.148C158.955 165.943 157.943 167.068 157.193 168.523C156.443 169.955 156.068 171.636 156.068 173.568V205H141.545Z" fill="#FFF500"/>
<path d="M248.94 147.352V135.182H306.281V147.352H284.906V205H270.315V147.352H248.94Z" fill="#DBFF00"/>
<path d="M330.384 205.989C327.043 205.989 324.065 205.409 321.452 204.25C318.838 203.068 316.77 201.33 315.247 199.034C313.747 196.716 312.997 193.83 312.997 190.375C312.997 187.466 313.531 185.023 314.599 183.045C315.668 181.068 317.122 179.477 318.963 178.273C320.804 177.068 322.895 176.159 325.236 175.545C327.599 174.932 330.077 174.5 332.668 174.25C335.713 173.932 338.168 173.636 340.031 173.364C341.895 173.068 343.247 172.636 344.088 172.068C344.929 171.5 345.349 170.659 345.349 169.545V169.341C345.349 167.182 344.668 165.511 343.304 164.33C341.963 163.148 340.054 162.557 337.577 162.557C334.963 162.557 332.884 163.136 331.338 164.295C329.793 165.432 328.77 166.864 328.27 168.591L314.838 167.5C315.52 164.318 316.861 161.568 318.861 159.25C320.861 156.909 323.44 155.114 326.599 153.864C329.781 152.591 333.463 151.955 337.645 151.955C340.554 151.955 343.338 152.295 345.997 152.977C348.679 153.659 351.054 154.716 353.122 156.148C355.213 157.58 356.861 159.42 358.065 161.67C359.27 163.898 359.872 166.568 359.872 169.682V205H346.099V197.739H345.69C344.849 199.375 343.724 200.818 342.315 202.068C340.906 203.295 339.213 204.261 337.236 204.966C335.259 205.648 332.974 205.989 330.384 205.989ZM334.543 195.966C336.679 195.966 338.565 195.545 340.202 194.705C341.838 193.841 343.122 192.682 344.054 191.227C344.986 189.773 345.452 188.125 345.452 186.284V180.727C344.997 181.023 344.372 181.295 343.577 181.545C342.804 181.773 341.929 181.989 340.952 182.193C339.974 182.375 338.997 182.545 338.02 182.705C337.043 182.841 336.156 182.966 335.361 183.08C333.656 183.33 332.168 183.727 330.895 184.273C329.622 184.818 328.634 185.557 327.929 186.489C327.224 187.398 326.872 188.534 326.872 189.898C326.872 191.875 327.588 193.386 329.02 194.432C330.474 195.455 332.315 195.966 334.543 195.966Z" fill="#8FFF00"/>
<path d="M414.707 167.568L401.412 168.386C401.185 167.25 400.696 166.227 399.946 165.318C399.196 164.386 398.207 163.648 396.98 163.102C395.776 162.534 394.332 162.25 392.651 162.25C390.401 162.25 388.503 162.727 386.957 163.682C385.412 164.614 384.639 165.864 384.639 167.432C384.639 168.682 385.139 169.739 386.139 170.602C387.139 171.466 388.855 172.159 391.287 172.682L400.764 174.591C405.855 175.636 409.651 177.318 412.151 179.636C414.651 181.955 415.901 185 415.901 188.773C415.901 192.205 414.889 195.216 412.866 197.807C410.866 200.398 408.116 202.42 404.616 203.875C401.139 205.307 397.128 206.023 392.582 206.023C385.651 206.023 380.128 204.58 376.014 201.693C371.923 198.784 369.526 194.83 368.821 189.83L383.105 189.08C383.537 191.193 384.582 192.807 386.241 193.92C387.901 195.011 390.026 195.557 392.616 195.557C395.162 195.557 397.207 195.068 398.753 194.091C400.321 193.091 401.116 191.807 401.139 190.239C401.116 188.92 400.56 187.841 399.469 187C398.378 186.136 396.696 185.477 394.423 185.023L385.355 183.216C380.241 182.193 376.435 180.42 373.935 177.898C371.457 175.375 370.219 172.159 370.219 168.25C370.219 164.886 371.128 161.989 372.946 159.557C374.787 157.125 377.366 155.25 380.685 153.932C384.026 152.614 387.935 151.955 392.412 151.955C399.026 151.955 404.23 153.352 408.026 156.148C411.844 158.943 414.071 162.75 414.707 167.568Z" fill="#42FF00"/>
<path d="M439.568 174.727V205H425.045V152.636H438.886V161.875H439.5C440.659 158.83 442.602 156.42 445.33 154.648C448.057 152.852 451.364 151.955 455.25 151.955C458.886 151.955 462.057 152.75 464.761 154.341C467.466 155.932 469.568 158.205 471.068 161.159C472.568 164.091 473.318 167.591 473.318 171.659V205H458.795V174.25C458.818 171.045 458 168.545 456.341 166.75C454.682 164.932 452.398 164.023 449.489 164.023C447.534 164.023 445.807 164.443 444.307 165.284C442.83 166.125 441.67 167.352 440.83 168.966C440.011 170.557 439.591 172.477 439.568 174.727Z" fill="#00FF85"/>
<path d="M484.764 205V152.636H499.287V205H484.764ZM492.06 145.886C489.901 145.886 488.048 145.17 486.503 143.739C484.98 142.284 484.219 140.545 484.219 138.523C484.219 136.523 484.98 134.807 486.503 133.375C488.048 131.92 489.901 131.193 492.06 131.193C494.219 131.193 496.06 131.92 497.582 133.375C499.128 134.807 499.901 136.523 499.901 138.523C499.901 140.545 499.128 142.284 497.582 143.739C496.06 145.17 494.219 145.886 492.06 145.886Z" fill="#00FFD1"/>
<path d="M510.92 205V152.636H525.443V205H510.92ZM518.216 145.886C516.057 145.886 514.205 145.17 512.659 143.739C511.136 142.284 510.375 140.545 510.375 138.523C510.375 136.523 511.136 134.807 512.659 133.375C514.205 131.92 516.057 131.193 518.216 131.193C520.375 131.193 522.216 131.92 523.739 133.375C525.284 134.807 526.057 136.523 526.057 138.523C526.057 140.545 525.284 142.284 523.739 143.739C522.216 145.17 520.375 145.886 518.216 145.886Z" fill="#00FFF0"/>
<path d="M537.077 205V152.636H550.918V161.875H551.531C552.622 158.807 554.44 156.386 556.986 154.614C559.531 152.841 562.577 151.955 566.122 151.955C569.713 151.955 572.77 152.852 575.293 154.648C577.815 156.42 579.497 158.83 580.338 161.875H580.884C581.952 158.875 583.884 156.477 586.679 154.682C589.497 152.864 592.827 151.955 596.668 151.955C601.554 151.955 605.52 153.511 608.565 156.625C611.634 159.716 613.168 164.102 613.168 169.784V205H598.679V172.648C598.679 169.739 597.906 167.557 596.361 166.102C594.815 164.648 592.884 163.92 590.565 163.92C587.929 163.92 585.872 164.761 584.395 166.443C582.918 168.102 582.179 170.295 582.179 173.023V205H568.099V172.341C568.099 169.773 567.361 167.727 565.884 166.205C564.429 164.682 562.509 163.92 560.122 163.92C558.509 163.92 557.054 164.33 555.759 165.148C554.486 165.943 553.474 167.068 552.724 168.523C551.974 169.955 551.599 171.636 551.599 173.568V205H537.077Z" fill="#0085FF"/>
<path d="M647.131 205V135.182H675.085C680.222 135.182 684.506 135.943 687.938 137.466C691.369 138.989 693.949 141.102 695.676 143.807C697.403 146.489 698.267 149.58 698.267 153.08C698.267 155.807 697.722 158.205 696.631 160.273C695.54 162.318 694.04 164 692.131 165.318C690.244 166.614 688.085 167.534 685.653 168.08V168.761C688.313 168.875 690.801 169.625 693.119 171.011C695.46 172.398 697.358 174.341 698.812 176.841C700.267 179.318 700.994 182.273 700.994 185.705C700.994 189.409 700.074 192.716 698.233 195.625C696.415 198.511 693.722 200.795 690.153 202.477C686.585 204.159 682.188 205 676.96 205H647.131ZM661.892 192.932H673.926C678.04 192.932 681.04 192.148 682.926 190.58C684.813 188.989 685.756 186.875 685.756 184.239C685.756 182.307 685.29 180.602 684.358 179.125C683.426 177.648 682.097 176.489 680.369 175.648C678.665 174.807 676.631 174.386 674.267 174.386H661.892V192.932ZM661.892 164.398H672.835C674.858 164.398 676.653 164.045 678.222 163.341C679.813 162.614 681.063 161.591 681.972 160.273C682.903 158.955 683.369 157.375 683.369 155.534C683.369 153.011 682.472 150.977 680.676 149.432C678.903 147.886 676.381 147.114 673.108 147.114H661.892V164.398Z" fill="#0047FF"/>
<path d="M725.259 205.989C721.918 205.989 718.94 205.409 716.327 204.25C713.713 203.068 711.645 201.33 710.122 199.034C708.622 196.716 707.872 193.83 707.872 190.375C707.872 187.466 708.406 185.023 709.474 183.045C710.543 181.068 711.997 179.477 713.838 178.273C715.679 177.068 717.77 176.159 720.111 175.545C722.474 174.932 724.952 174.5 727.543 174.25C730.588 173.932 733.043 173.636 734.906 173.364C736.77 173.068 738.122 172.636 738.963 172.068C739.804 171.5 740.224 170.659 740.224 169.545V169.341C740.224 167.182 739.543 165.511 738.179 164.33C736.838 163.148 734.929 162.557 732.452 162.557C729.838 162.557 727.759 163.136 726.213 164.295C724.668 165.432 723.645 166.864 723.145 168.591L709.713 167.5C710.395 164.318 711.736 161.568 713.736 159.25C715.736 156.909 718.315 155.114 721.474 153.864C724.656 152.591 728.338 151.955 732.52 151.955C735.429 151.955 738.213 152.295 740.872 152.977C743.554 153.659 745.929 154.716 747.997 156.148C750.088 157.58 751.736 159.42 752.94 161.67C754.145 163.898 754.747 166.568 754.747 169.682V205H740.974V197.739H740.565C739.724 199.375 738.599 200.818 737.19 202.068C735.781 203.295 734.088 204.261 732.111 204.966C730.134 205.648 727.849 205.989 725.259 205.989ZM729.418 195.966C731.554 195.966 733.44 195.545 735.077 194.705C736.713 193.841 737.997 192.682 738.929 191.227C739.861 189.773 740.327 188.125 740.327 186.284V180.727C739.872 181.023 739.247 181.295 738.452 181.545C737.679 181.773 736.804 181.989 735.827 182.193C734.849 182.375 733.872 182.545 732.895 182.705C731.918 182.841 731.031 182.966 730.236 183.08C728.531 183.33 727.043 183.727 725.77 184.273C724.497 184.818 723.509 185.557 722.804 186.489C722.099 187.398 721.747 188.534 721.747 189.898C721.747 191.875 722.463 193.386 723.895 194.432C725.349 195.455 727.19 195.966 729.418 195.966Z" fill="#7000FF"/>
<path d="M766.014 205V152.636H780.094V161.773H780.639C781.594 158.523 783.196 156.068 785.446 154.409C787.696 152.727 790.287 151.886 793.219 151.886C793.946 151.886 794.73 151.932 795.571 152.023C796.412 152.114 797.151 152.239 797.787 152.398V165.284C797.105 165.08 796.162 164.898 794.957 164.739C793.753 164.58 792.651 164.5 791.651 164.5C789.514 164.5 787.605 164.966 785.923 165.898C784.264 166.807 782.946 168.08 781.969 169.716C781.014 171.352 780.537 173.239 780.537 175.375V205H766.014Z" fill="#FF00E5"/>
<path d="M805.295 205V152.636H819.818V205H805.295ZM812.591 145.886C810.432 145.886 808.58 145.17 807.034 143.739C805.511 142.284 804.75 140.545 804.75 138.523C804.75 136.523 805.511 134.807 807.034 133.375C808.58 131.92 810.432 131.193 812.591 131.193C814.75 131.193 816.591 131.92 818.114 133.375C819.659 134.807 820.432 136.523 820.432 138.523C820.432 140.545 819.659 142.284 818.114 143.739C816.591 145.17 814.75 145.886 812.591 145.886Z" fill="#FF000F"/>
</svg>
